<svg xmlns="http://www.w3.org/2000/svg" viewBox="0 0 1500 350" role="img" aria-labelledby="title desc"><title id="title">ARVECTA Technologies</title><desc id="desc">ARVECTA Technologies corporate logo.</desc><defs><linearGradient id="blueA" x1="0" y1="1" x2="1" y2="0"><stop offset="0" stop-color="#06398f"/><stop offset=".55" stop-color="#0a57d4"/><stop offset="1" stop-color="#156dff"/></linearGradient><linearGradient id="blueV" x1="0" y1="0" x2=".9" y2="1"><stop offset="0" stop-color="#0877ff"/><stop offset=".62" stop-color="#0b55cf"/><stop offset="1" stop-color="#08275d"/></linearGradient><linearGradient id="teal" x1="0" y1="0" x2="1" y2="1"><stop offset="0" stop-color="#18d0c9"/><stop offset="1" stop-color="#079caa"/></linearGradient><linearGradient id="navy" x1="0" y1="0" x2="1" y2="1"><stop offset="0" stop-color="#0b1f4e"/><stop offset="1" stop-color="#031631"/></linearGradient></defs><g transform="translate(10 16) scale(.68)"><path d="M22 362 188 54c14-25 45-31 67-12l45 39-87 76-102 205Z" fill="url(#blueA)"/><path d="M190 53c14-25 47-29 67-7l114 131-65 88-137-152Z" fill="url(#navy)"/><path d="M113 261h124l48 60H80Z" fill="#073c9a"/><path d="M225 268h76l55 78-57 70c-13 17-39 16-51-2l-88-129Z" fill="url(#teal)"/><path d="m270 416 57-70 103-158h82L342 416c-18 24-53 24-72 0Z" fill="url(#blueV)"/><path d="m318 340 118-152h25L333 361Z" fill="#18d0c9" opacity=".85"/></g><text x="390" y="182" font-family="Inter,Arial,Helvetica,sans-serif" font-size="112" font-weight="750" letter-spacing="15" fill="#071c45">ARVECTA</text><line x1="390" y1="250" x2="500" y2="250" stroke="#17a6a1" stroke-width="6"/><text x="530" y="267" font-family="Inter,Arial,Helvetica,sans-serif" font-size="42" font-weight="600" letter-spacing="21" fill="#0d63f3">TECHNOLOGIES</text><line x1="1290" y1="250" x2="1440" y2="250" stroke="#17a6a1" stroke-width="6"/></svg>